<?xml version="1.0" encoding="UTF-8"?>
<svg width="20px" height="20px" viewBox="0 0 20 20" version="1.1" xmlns="http://www.w3.org/2000/svg" xmlns:xlink="http://www.w3.org/1999/xlink">
    <title>icon-external-white</title>
    <g id="Page-1" stroke="none" stroke-width="1" fill="none" fill-rule="evenodd">
        <g id="icon-external-white" transform="translate(-0.000042, 0.000000)" fill="#FFFFFF" fill-rule="nonzero">
            <path d="M13.7500062,9.43749637 L13.7500062,18.3333263 L1.66667751,18.3333263 L1.66667751,8.33333013 L8.3708791,8.33333013 L12.1208777,4.58332387 L0.9166778,4.58332387 C0.673346534,4.58262394 0.439777497,4.67897375 0.267715581,4.85103566 C0.0956536656,5.02309758 -0.000696146599,5.25666662 3.7870006e-06,5.49999788 L3.7870006e-06,19.0833239 C-0.000691679818,19.3266559 0.0956595669,19.5602223 0.267720511,19.7322833 C0.439781455,19.9043442 0.673347895,20.0006955 0.9166778,19.9999999 L14.5000476,19.9999999 C14.7433703,20.0006844 14.976926,19.9043282 15.1489779,19.7322685 C15.3210298,19.5602087 15.4173753,19.3266487 15.4166799,19.0833239 L15.4166799,7.77083034 L13.7500062,9.43749637 Z M4.79167631,5.8333299 C5.13685415,5.8333299 5.41667607,6.11315301 5.41667607,6.45833085 C5.41667607,6.80350868 5.13685415,7.08333061 4.79167631,7.08333061 C4.44649848,7.08333061 4.16667535,6.80350868 4.16667535,6.45833085 C4.16644723,6.29250041 4.23222159,6.133396 4.34948153,6.01613606 C4.46674146,5.89887612 4.62584587,5.83310177 4.79167631,5.8333299 Z M2.29167727,5.8333299 C2.63685511,5.8333299 2.91667703,6.11315301 2.91667703,6.45833085 C2.91667703,6.80350868 2.63685511,7.08333061 2.29167727,7.08333061 C1.94649944,7.08333061 1.66667632,6.80350868 1.66667632,6.45833085 C1.66644819,6.29250041 1.73222255,6.133396 1.84948249,6.01613606 C1.96674243,5.89887612 2.12584684,5.83310177 2.29167727,5.8333299 Z" id="Shape"></path>
            <path d="M19.1666708,0 L10.4166742,0 C9.95643703,0 9.58334113,0.373095898 9.58334113,0.833333013 C9.58334113,1.29357013 9.95643703,1.66666603 10.4166742,1.66666603 L17.0957508,1.66666603 L7.71444602,11.0479707 C7.37393698,11.3899797 7.37459038,11.9430975 7.71590651,12.284301 C8.05722263,12.6255046 8.6103406,12.6259755 8.95223721,12.2853536 L18.3333378,2.90425305 L18.3333378,9.58332964 C18.3333378,10.0435668 18.7064337,10.4166627 19.1666708,10.4166627 C19.6269079,10.4166627 20.0000038,10.0435668 20.0000038,9.58332964 L20.0000038,0.833333013 C20.0000038,0.373105429 19.6268984,0 19.1666708,0 Z" id="Path"></path>
        </g>
    </g>
</svg>