<?xml version="1.0" encoding="UTF-8"?>
<svg width="21px" height="20px" viewBox="0 0 21 20" version="1.1" xmlns="http://www.w3.org/2000/svg" xmlns:xlink="http://www.w3.org/1999/xlink">
    <title>icon-download</title>
    <g id="Page-1" stroke="none" stroke-width="1" fill="none" fill-rule="evenodd">
        <g id="icon-download" transform="translate(0.990379, 0.000000)" fill="#000000" fill-rule="nonzero">
            <path d="M3.28417078,13.7977961 L9.11638058,19.6300059 C9.35068794,19.8644359 9.66855051,19.9961476 9.99999786,19.9961476 C10.3314452,19.9961476 10.6493078,19.8644359 10.8836151,19.6300059 L16.7158249,13.7977961 C17.2038333,13.3097878 17.2038333,12.5185699 16.7158249,12.0305616 C16.2278166,11.5425532 15.4365987,11.5425532 14.9485904,12.0305616 L11.2497571,15.7293907 L11.2497571,4.99903697 C11.2497571,4.308814 10.6902208,3.74927773 9.99999786,3.74927773 C9.30977489,3.74927773 8.75023862,4.308814 8.75023862,4.99903697 L8.75023862,15.7293907 L5.05140534,12.0305616 C4.56339699,11.5425532 3.77217913,11.5425532 3.28417078,12.0305616 C2.79616243,12.5185699 2.79616243,13.3097878 3.28417078,13.7977961 Z" id="Path"></path>
            <path d="M19.0810943,0 L0.918901434,0 C0.377607069,0.0383551402 -0.0316269629,0.505801518 0.00192391679,1.04741489 L0.00192391679,4.78479491 C-0.0316269629,5.32640828 0.377607069,5.79385466 0.918901434,5.8322098 L7.50047937,5.8322098 L7.50047937,4.99903697 C7.50047937,3.61859103 8.61955192,2.49951849 10,2.49951849 C11.3804438,2.49951849 12.4995163,3.61859103 12.4995163,4.99903697 L12.4995163,5.8322098 L19.0810943,5.8322098 C19.6224072,5.79389197 20.0316621,5.32642173 19.9980718,4.78479491 L19.9980718,1.04741489 C20.0316621,0.505788072 19.6224072,0.0383178281 19.0810943,0 Z M14.9990348,3.74927773 C14.5388862,3.74927773 14.165862,3.37625355 14.165862,2.9161049 C14.165862,2.45595625 14.5388862,2.08293207 14.9990348,2.08293207 C15.4591835,2.08293207 15.8322077,2.45595625 15.8322077,2.9161049 C15.8322077,3.37624783 15.4591778,3.74927773 14.9990348,3.74927773 Z M17.9151397,3.74927773 C17.4549911,3.74927773 17.0819669,3.37625355 17.0819669,2.9161049 C17.0819669,2.45595625 17.4549911,2.08293207 17.9151397,2.08293207 C18.3752884,2.08293207 18.7483126,2.45595625 18.7483126,2.9161049 C18.7483126,3.37624783 18.3752827,3.74927773 17.9151397,3.74927773 Z" id="Shape"></path>
        </g>
    </g>
</svg>