<?xml version="1.0" encoding="UTF-8"?>
<svg width="100px" height="105px" viewBox="0 0 100 105" version="1.1" xmlns="http://www.w3.org/2000/svg" xmlns:xlink="http://www.w3.org/1999/xlink">
    <title>icon-warning</title>
    <g id="Page-1" stroke="none" stroke-width="1" fill="none" fill-rule="evenodd">
        <g id="icon-warning" transform="translate(-0.000000, 0.000000)" fill="#007CE1" fill-rule="nonzero">
            <path d="M80.9523824,7.34094343e-07 L19.0476205,7.34094343e-07 C13.995448,-0.00140109281 9.14979662,2.00494546 5.57737104,5.57737104 C2.00494546,9.14979662 -0.00140109281,13.995448 7.34094343e-07,19.0476205 L7.34094343e-07,64.2857158 C-0.0013505256,69.3378728 2.00501227,74.1834948 5.57742688,77.7559094 C9.14984149,81.328324 13.9954635,83.3346868 19.0476205,83.3333348 L52.3809538,83.3333348 L73.3571443,104.309668 C73.8357053,104.78155 74.5510854,104.919354 75.1706951,104.659014 C75.7903048,104.398674 76.192572,103.79127 76.1904777,103.119192 L76.1904777,83.3333348 L80.9523824,83.3333348 C86.0045394,83.3346868 90.8501614,81.328324 94.4225761,77.7559094 C97.9949907,74.1834948 100.001353,69.3378728 100.000001,64.2857158 L100.000001,19.0476205 C100.001404,13.995448 97.9950575,9.14979662 94.4226319,5.57737104 C90.8502063,2.00494546 86.0045549,-0.00140109281 80.9523824,7.34094343e-07 Z M50.0000015,66.6666681 C47.3700741,66.6666681 45.2380967,64.5346908 45.2380967,61.9047634 C45.2380967,59.274836 47.3700741,57.1428586 50.0000015,57.1428586 C52.6299288,57.1428586 54.7619062,59.274836 54.7619062,61.9047634 C54.7541785,64.5314832 52.6267212,66.6589404 50.0000015,66.6666681 L50.0000015,66.6666681 Z M54.7619062,45.2380967 C54.7619062,47.8680241 52.6299288,50.0000015 50.0000015,50.0000015 C47.3700741,50.0000015 45.2380967,47.8680241 45.2380967,45.2380967 L45.2380967,19.0476205 C45.2380967,16.4176931 47.3700741,14.2857158 50.0000015,14.2857158 C52.6299288,14.2857158 54.7619062,16.4176931 54.7619062,19.0476205 L54.7619062,45.2380967 Z" id="Shape"></path>
        </g>
    </g>
</svg>