<?xml version="1.0" encoding="UTF-8"?>
<svg width="20px" height="20px" viewBox="0 0 20 20" version="1.1" xmlns="http://www.w3.org/2000/svg" xmlns:xlink="http://www.w3.org/1999/xlink">
    <title>icon-external</title>
    <g id="Page-1" stroke="none" stroke-width="1" fill="none" fill-rule="evenodd">
        <g id="icon-external" transform="translate(-0.000038, 0.000000)" fill="#000000" fill-rule="nonzero">
            <path d="M13.7500024,9.43749641 L13.7500024,18.3333264 L1.66667372,18.3333264 L1.66667372,8.33333017 L8.37087531,8.33333017 L12.1208739,4.58332772 L0.916674013,4.58332772 C0.673342747,4.58262396 0.43977371,4.67897377 0.267711794,4.85103569 C0.0956498786,5.0230976 -0.0006999336,5.25666664 3.82839569e-06,5.49999791 L3.82839569e-06,19.0833277 C-0.000695466819,19.326656 0.0956557799,19.5602224 0.267716724,19.7322834 C0.439777668,19.9043443 0.673344108,20.0006956 0.916674013,19.9999962 L14.5000438,19.9999962 C14.7433665,20.0006845 14.9769222,19.9043283 15.1489741,19.7322686 C15.321026,19.5602088 15.4173715,19.3266487 15.4166723,19.0833277 L15.4166723,7.77083038 L13.7500024,9.43749641 Z M4.79167252,5.83333052 C5.13685036,5.83333052 5.41667228,6.11315304 5.41667228,6.45833088 C5.41667228,6.80350872 5.13685036,7.08333064 4.79167252,7.08333064 C4.44649469,7.08333064 4.16667216,6.80350872 4.16667216,6.45833088 C4.16644344,6.29250044 4.2322178,6.13339603 4.34947774,6.01613609 C4.46673767,5.89887615 4.62584208,5.83310179 4.79167252,5.83333052 Z M2.29167348,5.83333052 C2.63685132,5.83333052 2.91667324,6.11315304 2.91667324,6.45833088 C2.91667324,6.80350872 2.63685132,7.08333064 2.29167348,7.08333064 C1.94649565,7.08333064 1.66667313,6.80350872 1.66667313,6.45833088 C1.6664444,6.29250044 1.73221876,6.13339603 1.8494787,6.01613609 C1.96673864,5.89887615 2.12584305,5.83310179 2.29167348,5.83333052 Z" id="Shape"></path>
            <path d="M19.166667,0 L10.4166704,0 C9.95643324,0 9.58333734,0.3730959 9.58333734,0.833333017 C9.58333734,1.29357013 9.95643324,1.66666603 10.4166704,1.66666603 L17.095747,1.66666603 L7.71444223,11.0479708 C7.37393319,11.3899798 7.37458659,11.9430976 7.71590272,12.2843011 C8.05721884,12.6255046 8.61033681,12.6259755 8.95223342,12.2853537 L18.333334,2.90425306 L18.333334,9.58332969 C18.333334,10.0435668 18.7064299,10.4166627 19.166667,10.4166627 C19.6269041,10.4166627 20,10.0435668 20,9.58332969 L20,0.833333017 C20,0.373105431 19.6268946,0 19.166667,0 Z" id="Path"></path>
        </g>
    </g>
</svg>